<svg width="81" height="80" viewBox="0 0 81 80" fill="none" xmlns="http://www.w3.org/2000/svg">
<rect width="40" height="40" rx="4" fill="#FF9820"/>
<path d="M40.0008 44C40.0008 41.7909 41.7917 40 44.0008 40H76.0008C78.21 40 80.0008 41.7909 80.0008 44V59.6393C80.0008 59.8793 80.0227 60.1167 80.0447 60.3556C80.1658 61.6714 80.2513 66.4744 76.0008 72C71.0008 78.5 66.6374 79.8254 60.0008 80C53.0173 80.1838 48.5 77.5 44.0008 72C39.9048 66.9928 39.9515 61.1568 39.9928 60.1512C39.997 60.049 40.0008 59.9488 40.0008 59.8466V44Z" fill="#6B6B6B"/>
<path d="M40.1855 2.91705C40.3883 1.16231 41.9298 0 43.6962 0H76.7201C78.9293 0 80.7201 1.79086 80.7201 4V36.811C80.7201 38.6768 79.4283 40.2772 77.5675 40.4144C71.9166 40.8307 59.7191 40.242 49.7188 29.5C39.8268 18.8743 39.6003 7.9802 40.1855 2.91705Z" fill="#F0F0F0"/>
<circle cx="20" cy="60" r="20" fill="#7D7D7D"/>
</svg>
