<svg width="81" height="80" viewBox="0 0 81 80" fill="none" xmlns="http://www.w3.org/2000/svg">
<rect x="80.7197" y="80.0088" width="40" height="40" rx="4" transform="rotate(180 80.7197 80.0088)" fill="#F0F0F0"/>
<path d="M40.7189 36.0088C40.7189 38.2179 38.928 40.0088 36.7189 40.0088H4.71889C2.50976 40.0088 0.718894 38.2179 0.718894 36.0088V20.3695C0.718894 20.1295 0.69706 19.8921 0.675059 19.6532C0.553912 18.3374 0.468421 13.5344 4.71889 8.00879C9.71889 1.50879 14.0823 0.183439 20.7189 0.00879145C27.7024 -0.174985 32.2197 2.50879 36.7189 8.00879C40.8149 13.016 40.7682 18.852 40.727 19.8576C40.7228 19.9597 40.7189 20.0599 40.7189 20.1622V36.0088Z" fill="#6B6B6B"/>
<path d="M40.5343 77.0917C40.3314 78.8465 38.7899 80.0088 37.0235 80.0088H3.99961C1.79047 80.0088 -0.000390487 78.2179 -0.000390487 76.0088V43.1978C-0.000390487 41.332 1.29146 39.7315 3.15221 39.5944C8.80309 39.1781 21.0007 39.7668 31.0009 50.5088C40.8929 61.1344 41.1194 72.0286 40.5343 77.0917Z" fill="#7D7D7D"/>
<circle cx="60.7197" cy="20.0088" r="20" transform="rotate(180 60.7197 20.0088)" fill="#FF9820"/>
</svg>
