<svg width="81" height="82" viewBox="0 0 81 82" fill="none" xmlns="http://www.w3.org/2000/svg">
<rect x="80.6621" y="81.0088" width="40" height="40" rx="4" transform="rotate(180 80.6621 81.0088)" fill="#6B6B6B"/>
<path d="M36.0088 40.9715C38.2179 40.9715 40.0088 42.7624 40.0088 44.9715L40.0088 76.9715C40.0088 79.1806 38.2179 80.9715 36.0088 80.9715H20.3695C20.1295 80.9715 19.8921 80.9933 19.6532 81.0153C18.3374 81.1365 13.5344 81.222 8.00882 76.9715C1.50882 71.9715 0.18347 67.6081 0.00882244 60.9715C-0.174954 53.988 2.50882 49.4707 8.00882 44.9715C13.016 40.8755 18.852 40.9222 19.8576 40.9635C19.9598 40.9677 20.06 40.9715 20.1622 40.9715H36.0088Z" fill="#F0F0F0"/>
<path d="M80.4874 37.5888C80.2846 39.3436 78.7431 40.5059 76.9766 40.5059H43.9527C41.7436 40.5059 39.9527 38.715 39.9527 36.5059V3.69484C39.9527 1.82904 41.2446 0.228615 43.1053 0.0915096C48.7562 -0.324863 60.9538 0.263895 70.954 11.0059C80.846 21.6315 81.0726 32.5257 80.4874 37.5888Z" fill="#7D7D7D"/>
<circle cx="20.9424" cy="21" r="20" transform="rotate(180 20.9424 21)" fill="#FF9820"/>
</svg>
