<svg width="45" height="39" viewBox="0 0 45 39" fill="none" xmlns="http://www.w3.org/2000/svg">
<path d="M0.000620099 18.5C0.0010691 16.5 1.58049 13.0332 3.50062 10C5.54557 6.76964 9.70893 3.56289 12.4251 1.6825C13.8128 0.721765 15.6832 1.21355 16.5107 2.68464L18.3549 5.9631C19.0285 7.16078 18.8035 8.66196 17.8171 9.61859C16.2306 11.1571 13.8945 13.4587 12.5 15C11.4197 16.194 10.8012 17.0459 10.4498 17.61C10.1799 18.0434 10.4905 18.5 11.001 18.5V18.5H17.0006C18.6575 18.5 20.0006 19.8431 20.0006 21.5V35.5C20.0006 37.1569 18.6575 38.5 17.0006 38.5H3.00029C1.34357 38.5 0.000480515 37.1624 0.000351815 35.5057C1.33757e-05 31.149 -0.000408979 23.0839 0.000620099 18.5Z" fill="url(#paint0_linear_651_10)"/>
<path d="M25.0006 18.5C25.0011 16.5 26.5805 13.0332 28.5006 10C30.5456 6.76964 34.7089 3.56289 37.4251 1.6825C38.8128 0.721765 40.6832 1.21355 41.5107 2.68464L43.3549 5.9631C44.0285 7.16078 43.8035 8.66196 42.8171 9.61859C41.2306 11.1571 38.8945 13.4587 37.5 15C36.4197 16.194 35.8012 17.0459 35.4498 17.61C35.1799 18.0434 35.4905 18.5 36.001 18.5V18.5H42.0006C43.6575 18.5 45.0006 19.8431 45.0006 21.5V35.5C45.0006 37.1569 43.6575 38.5 42.0006 38.5H28.0003C26.3436 38.5 25.0005 37.1624 25.0004 35.5057C25 31.149 24.9996 23.0839 25.0006 18.5Z" fill="url(#paint1_linear_651_10)"/>
<defs>
<linearGradient id="paint0_linear_651_10" x1="10.0003" y1="0" x2="10.0003" y2="38.5" gradientUnits="userSpaceOnUse">
<stop stop-color="#FF9520"/>
<stop offset="1" stop-color="#F9581E"/>
</linearGradient>
<linearGradient id="paint1_linear_651_10" x1="35.0003" y1="0" x2="35.0003" y2="38.5" gradientUnits="userSpaceOnUse">
<stop stop-color="#FF9520"/>
<stop offset="1" stop-color="#F9581E"/>
</linearGradient>
</defs>
</svg>
