<svg width="80" height="80" viewBox="0 0 80 80" fill="none" xmlns="http://www.w3.org/2000/svg">
<circle cx="40" cy="19" r="16" fill="#F9561E"/>
<path fill-rule="evenodd" clip-rule="evenodd" d="M28 50.6182V56.5114C15.7079 57.6024 7 60.3202 7 63.5001C7 67.6423 21.7746 71.0001 40 71.0001C58.2254 71.0001 73 67.6423 73 63.5001C73 60.4071 64.7617 57.7514 53 56.6045V50.7291C68.7098 52.5502 80 57.5802 80 63.5001C80 70.956 62.0914 77.0001 40 77.0001C17.9086 77.0001 0 70.956 0 63.5001C0 57.4553 11.7716 52.3384 28 50.6182Z" fill="#F9561E"/>
<path d="M31.5 51.4987C32.9878 52.9852 32.5 56 29.5 56.4991C29.0068 56.5811 26 56.4991 24.9999 56.4991C24.9999 54.8422 23.4996 51.9991 24.9995 50.9991C26.9325 50.9991 30 50 31.5 51.4987Z" fill="#F9561E"/>
<path d="M49.628 51.326C48.1404 52.8125 48.5 56 51.5 56.5C51.9931 56.5822 55.1037 56.8265 56.1036 56.8265C56.1036 55.1696 57.6025 52.236 56.1028 51.2361C54.1701 51.2361 51.1278 49.8273 49.628 51.326Z" fill="#F9561E"/>
<rect x="37" y="32" width="6" height="35" rx="3" fill="#F9561E"/>
</svg>
